<?xml version="1.0" standalone="no"?>
<!DOCTYPE svg PUBLIC "-//W3C//DTD SVG 1.1//EN" "http://www.w3.org/Graphics/SVG/1.1/DTD/svg11.dtd">
<svg t="1529387261339" class="icon" style="" viewBox="0 0 1024 1024" version="1.1" xmlns="http://www.w3.org/2000/svg" p-id="1306"
    xmlns:xlink="http://www.w3.org/1999/xlink" width="200" height="200">
    <defs>
        <style type="text/css"></style>
    </defs>
    <path d="M105.025641 0h236.307692c57.764103 0 105.025641 47.261538 105.025641 105.025641v236.307692c0 57.764103-47.261538 105.025641-105.025641 105.025641H105.025641c-57.764103 0-105.025641-47.261538-105.025641-105.025641V105.025641c0-57.764103 47.261538-105.025641 105.025641-105.025641z m0 577.641026h236.307692c57.764103 0 105.025641 47.261538 105.025641 105.025641v236.307692c0 57.764103-47.261538 105.025641-105.025641 105.025641H105.025641c-57.764103 0-105.025641-47.261538-105.025641-105.025641V682.666667c0-57.764103 47.261538-105.025641 105.025641-105.025641z m577.641026 0h236.307692c57.764103 0 105.025641 47.261538 105.025641 105.025641v236.307692c0 57.764103-47.261538 105.025641-105.025641 105.025641H682.666667c-57.764103 0-105.025641-47.261538-105.025641-105.025641V682.666667c0-57.764103 47.261538-105.025641 105.025641-105.025641z"
        fill="#aaa" p-id="1307"></path>
    <path d="M848.082051 24.94359L984.615385 161.476923c34.133333 34.133333 34.133333 87.958974 0 122.092308L848.082051 421.415385c-34.133333 34.133333-87.958974 34.133333-122.092307 0L589.45641 283.569231c-34.133333-34.133333-34.133333-87.958974 0-122.092308L727.302564 24.94359c32.820513-32.820513 87.958974-32.820513 120.779487 0z"
        fill="#ccc" p-id="1308"></path>
</svg>