<svg class="icon" style="width: 1.044921875em; height: 1em;vertical-align: middle;fill: currentColor;overflow: hidden;" viewBox="0 0 1070 1024"
    version="1.1" xmlns="http://www.w3.org/2000/svg" p-id="706">
    <path d="M1063.893045 518.148967c-9.367612 18.735223-29.441065 30.779296-52.190979 30.779296h-49.51452v368.013317c0 58.882131-48.176289 107.05842-107.058419 107.05842h-628.968216c-58.882131 0-107.05842-48.176289-107.058419-107.05842V548.928263H58.882131C26.764605 548.928263 0 522.163658 0 490.046132c0-12.044072 4.014691-22.749914 9.367612-32.117526L487.115809 25.680237c18.735223-26.764605 54.86744-33.455756 81.632045-16.058763 6.691151 4.014691 12.044072 9.367612 16.058763 16.058763l476.409968 430.910139c12.044072 18.735223 12.044072 42.823368 2.67646 61.558591z"
        fill="#aaa" p-id="707"></path>
    <path d="M533.953868 742.971648c58.882131 0 107.05842 48.176289 107.05842 107.05842v173.969932h-214.11684v-173.969932c0-58.882131 48.176289-107.05842 107.05842-107.05842z"
        fill="#eee" p-id="708"></path>
</svg>